<svg xmlns="http://www.w3.org/2000/svg" xmlns:xlink="http://www.w3.org/1999/xlink" version="1.1" x="120px" y="150px" viewBox="0 0 100 125" enable-background="new 0 0 100 100" xml:space="preserve"><path d="M84.592,15.155c0.765,0,1.385-0.62,1.385-1.385V5.404c0-0.765-0.62-1.384-1.385-1.384h-4.354H19.762h-4.353  c-0.766,0-1.385,0.62-1.385,1.384v8.366c0,0.765,0.619,1.385,1.385,1.385h2.968v65.077h-2.968c-0.766,0-1.385,0.62-1.385,1.384  v8.366c0,0.765,0.619,1.385,1.385,1.385h2.968v3.229c0,0.765,0.619,1.385,1.384,1.385h5.447c0.367,0,0.719-0.146,0.979-0.406  l4.208-4.208h39.129l4.208,4.208c0.26,0.26,0.612,0.406,0.979,0.406h5.447c0.765,0,1.384-0.62,1.384-1.385v-3.229h3.048  c0.765,0,1.385-0.62,1.385-1.385v-8.366c0-0.764-0.62-1.384-1.385-1.384h-2.969V15.155H84.592z M16.793,6.789h66.414v5.597H16.793  V6.789z M55.313,31.641h12.713v3.393H55.418C55.666,34.078,55.697,32.946,55.313,31.641z M51.94,28.872v-4.306h2.71v4.3h-1.442  c-0.014,0-0.027,0.005-0.04,0.005H51.94z M67.815,24.566c-0.421,1.398-0.424,2.911-0.009,4.3H57.419v-4.3H67.815z M73.054,35.034  h-2.259v-3.398h2.259V35.034z M78.854,37.999v5.256h-4.912c-0.765,0-1.385,0.62-1.385,1.384v18.197H56.653l2.009-1.16  c0.663-0.382,0.89-1.229,0.507-1.892l-2.738-4.743c0,0,0,0-0.001-0.001c0-0.001,0-0.001-0.001-0.001L49.43,42.917  c-0.382-0.663-1.228-0.89-1.891-0.507l-5.341,3.084c-0.046,0.026-0.075,0.071-0.117,0.102v-0.957c0-0.764-0.619-1.384-1.384-1.384  h-6.167c-0.764,0-1.384,0.62-1.384,1.384v2.772H27.35v-2.772c0-0.764-0.619-1.384-1.384-1.384h-4.819v-5.256H78.854z M75.325,51.052  h3.398v11.681h-3.398V51.052z M78.724,48.283h-3.398v-2.259h3.398V48.283z M35.914,52.239h3.398v10.493h-3.398V52.239z   M27.885,55.458h4.961v7.274h-4.961V55.458z M21.183,60.021h3.397v2.711h-3.397V60.021z M24.581,57.253h-3.397v-6.201h3.397V57.253z   M39.312,49.47h-3.398v-3.446h3.398V49.47z M32.847,52.688h-4.961V50.18h4.961V52.688z M24.581,48.283h-3.397v-2.259h3.397V48.283z   M42.081,48.06l8.532,14.776h-8.532V48.06z M56.079,59.971l-2.943,1.699l-1.354-2.348l2.943-1.699L56.079,59.971z M50.396,56.925  l-3.101-5.371l2.943-1.7l3.101,5.372L50.396,56.925z M45.911,49.156l-1.129-1.957l2.943-1.699l1.129,1.956L45.911,49.156z   M28.472,34.135l-5.663-9.81l2.874-1.66l5.664,9.81L28.472,34.135z M25.908,35.229h-4.761v-8.247L25.908,35.229z M24.636,93.211  h-3.489v-1.845h5.334L24.636,93.211z M78.775,93.211h-3.489l-1.845-1.845h5.334V93.211z M83.207,88.597H16.793V83h66.414V88.597z   M45.094,79.4h-2.259v-3.396h2.259V79.4z M40.066,79.4H27.458c0.249-0.958,0.279-2.091-0.105-3.396h12.713V79.4z M59.457,79.822  V69.616h3.317v10.206H59.457z M56.646,74.446h-3.317V72.24h3.317V74.446z M53.328,77.215h3.317v3.017h-3.317V77.215z M65.544,80.231  v-12c0-0.765-0.619-1.385-1.385-1.385h-6.087c-0.765,0-1.385,0.62-1.385,1.385v1.239h-4.744c-0.766,0-1.384,0.62-1.384,1.385v9.376  h-2.696v-5.612c0-0.765-0.619-1.385-1.384-1.385H25.248c-0.493,0-0.949,0.264-1.197,0.689c-0.248,0.428-0.25,0.954-0.005,1.382  c1.406,2.461,0.735,3.822,0.107,4.632c-0.07,0.091-0.123,0.19-0.167,0.294h-2.839V65.604h57.707v14.627H65.544z M78.854,35.229  h-3.03v-4.978c0-0.765-0.619-1.385-1.385-1.385h-3.644c-0.708-1.314-0.713-2.964,0.001-4.301h1.462c0.766,0,1.385-0.62,1.385-1.385  c0-0.764-0.619-1.384-1.385-1.384H60.604c-0.002,0-0.006,0-0.009,0h-10.04c-0.765,0-1.384,0.621-1.384,1.385v7.075  c0,0.764,0.619,1.384,1.384,1.384h1.8c0.776,1.731,0.461,2.848-0.004,3.588H32.115l1.815-1.048c0.662-0.382,0.889-1.229,0.506-1.892  l-7.048-12.208c-0.184-0.318-0.486-0.55-0.841-0.645c-0.355-0.096-0.733-0.044-1.05,0.139l-4.351,2.512v-6.934h57.707V35.229z"/></svg>